<?xml version="1.0" standalone="no"?>
<!DOCTYPE svg PUBLIC "-//W3C//DTD SVG 1.1//EN" "http://www.w3.org/Graphics/SVG/1.1/DTD/svg11.dtd">
<svg width="10" height="10" viewBox="-5 -5 10 10" xmlns="http://www.w3.org/2000/svg" version="1.1">
<title>OpenSCAD Model</title>
<path d="
M 1.47137,4.77859 L 1.92882,4.61298 L 2.36801,4.40369 L 2.78477,4.15269 L 3.17519,3.8624 L 3.53552,3.53552
 L 3.8624,3.17519 L 4.15269,2.78477 L 4.40369,2.36801 L 4.61298,1.92882 L 4.77859,1.47137 L 4.89897,1
 L 2.5,1 L 2.5,-1 L 4.89897,-1 L 4.77859,-1.47137 L 4.61298,-1.92882 L 4.40369,-2.36801
 L 4.15269,-2.78477 L 3.8624,-3.17519 L 3.53552,-3.53552 L 3.17519,-3.8624 L 2.78477,-4.15269 L 2.36801,-4.40369
 L 1.92882,-4.61298 L 1.47137,-4.77859 L 1,-4.89897 L 1,-2.5 L -1,-2.5 L -1,-4.89897
 L -1.47137,-4.77859 L -1.92882,-4.61298 L -2.36801,-4.40369 L -2.78477,-4.15269 L -3.17519,-3.8624 L -3.53552,-3.53552
 L -3.8624,-3.17519 L -4.15269,-2.78477 L -4.40369,-2.36801 L -4.61298,-1.92882 L -4.77859,-1.47137 L -4.89897,-1
 L -2.5,-1 L -2.5,1 L -4.89897,1 L -4.77859,1.47137 L -4.61298,1.92882 L -4.40369,2.36801
 L -4.15269,2.78477 L -3.8624,3.17519 L -3.53552,3.53552 L -3.17519,3.8624 L -2.78477,4.15269 L -2.36801,4.40369
 L -1.92882,4.61298 L -1.47137,4.77859 L -1,4.89897 L -1,2.5 L 1,2.5 L 1,4.89897
 z
" stroke="black" fill="lightgray" stroke-width="0.5"/></svg>
